PathFileType	4	(X/Y/Z)	OpenSim_Sub10_EMGBaseline_Accel.trc
DataRate	CameraRate	NumFrames	NumMarkers	Units	OrigDataRate	OrigDataStartFrame	OrigNumFrames
100	100	27	8	m	100	6151	8201
Frame#	Time	torso_imu_offset_imu	pelvis_imu_offset_imu	tibia_r_imu_offset_imu	femur_r_imu_offset_imu	tibia_l_imu_offset_imu	femur_l_imu_offset_imu	toes_r_imu_offset_imu	toes_l_imu_offset_imu
				X1	Y1	Z1	X2	Y2	Z2	X3	Y3	Z3	X4	Y4	Z4	X5	Y5	Z5	X6	Y6	Z6	X7	Y7	Z7	X8		Y8	Z8	

6151	61.50000000	9.16953900	-0.04185200	5.78870000	9.09103700	1.84154500	4.63776100	9.91933600	6.63052200	2.76737500	9.73181500	0.42503000	-1.04115000	12.09018800	2.06928600	-0.06929300	8.06684700	1.93913200	0.25141500	4.95188200	0.17146700	9.03295600	8.37576700	4.33307700	14.08089700
6152	61.51000000	8.81762800	-0.22089900	5.67198400	8.84792100	2.22784600	4.79389300	11.38489800	4.44473000	2.18450600	9.71126800	-0.32435600	-0.90545400	12.18401900	2.17827800	-0.19180900	8.25851000	1.27612700	0.13693200	4.66863600	0.46639600	9.22472100	6.68029600	0.28464300	11.19352700
6153	61.52000000	8.53076000	-0.44768900	5.64914200	8.59701900	2.36354900	4.91344200	11.64640300	3.34039200	1.35708500	9.76958100	-1.07385900	-0.61579900	12.27731600	0.42617000	0.44978500	9.02334600	0.54602800	0.09749700	4.69202500	0.96131700	9.35971700	9.87111100	5.36888900	14.08909500
6154	61.53000000	8.30429600	-0.71722700	5.43948000	8.20795900	2.40939200	4.92544400	11.10284000	2.14907200	0.94175300	9.68556500	-1.62974900	-0.45584900	11.72603900	-2.15792200	0.44176200	10.25137500	-0.20928500	-0.15175500	4.97129600	1.09639600	9.24743600	13.66862700	2.11900400	12.86573500
6155	61.54000000	8.02448700	-0.91685600	5.26729800	8.02618400	2.23099300	4.88801400	10.56171400	0.14780800	0.61874100	9.40830500	-2.02866600	-0.42177500	10.95684900	-5.02425500	0.22075900	11.29295300	-0.96988800	-0.44231400	5.17174700	0.44889600	8.74040400	19.10048300	4.77209900	14.27456900
6156	61.55000000	7.84177500	-1.09823300	5.19611800	7.97171600	1.81997800	4.72773700	9.92374000	-1.63253800	1.03921500	9.12388400	-2.25204100	-0.74173600	10.35523800	-7.54186400	0.51689800	12.04786600	-1.38103400	-0.50557900	5.33872700	0.57053500	8.80317300	15.61343900	7.75464300	12.96336900
6157	61.56000000	7.70964400	-1.12828900	5.21816100	8.06354100	1.39376600	4.60567800	9.48405500	-2.74702600	-0.13724100	8.97243900	-2.17232600	-0.87123600	9.48780000	-9.48671000	0.39183400	12.39255500	-1.55488000	-0.54878800	5.05915100	0.52320100	8.89384100	13.77311600	3.54571300	11.89376500
6158	61.57000000	7.85461300	-1.09252400	5.32006500	8.30578100	1.02648700	4.48972700	9.38040100	-3.01102400	-1.01834400	8.83912600	-1.92664600	-0.70196100	8.52925300	-11.64716300	-1.25141900	11.86016000	-1.35111100	-0.51390100	5.03305100	0.20681800	8.76182100	6.99595400	-0.72849100	15.77779099
6159	61.58000000	8.23828100	-0.96194000	5.46482200	8.65287700	0.70443200	4.34307200	9.44181000	-1.98391900	-0.72626700	8.81786100	-1.51447300	-0.56163600	7.71654100	-13.63225400	-3.46967800	11.43699200	-0.58897100	-0.22202100	4.82902400	-0.04266800	8.93726000	18.25502800	-6.50022500	25.37270400
6160	61.59000000	8.53750400	-0.78353000	5.57195600	8.84624900	0.60271100	4.22607100	9.78094100	-0.30532900	-0.88792400	8.86008800	-1.10833000	-0.61526500	5.82653800	-14.21093400	-4.67288000	11.80659300	0.51077000	0.11971000	5.10094800	-0.02061200	8.69574300	11.60883001	0.16161100	24.64380500
6161	61.60000000	9.04100700	-0.61978300	5.65163000	9.04729300	0.57367100	4.20357900	10.29469200	1.83542000	-1.21398900	8.75250900	-0.59532700	-0.82152200	3.63296800	-12.43180300	-4.32990600	12.17749600	1.71656800	-0.14102200	4.73366400	-0.19945100	8.86807300	-2.07507700	4.34251500	17.18359200
6162	61.61000000	9.63037500	-0.44392900	5.73676400	9.24051600	0.59851300	4.02596700	10.80340900	3.92160200	-1.62753200	8.60941900	-0.32229300	-1.13796600	2.05727400	-9.39498000	-1.48020700	12.30221900	2.97162400	-0.46799800	4.66465500	-0.38378700	8.99685000	-2.96003900	4.47380700	13.98318200
6163	61.62000000	10.01314400	-0.36684500	5.78545100	9.44787100	0.74033400	3.75732600	10.93667400	5.49228300	-1.57825300	8.52789100	-0.13477100	-1.34794700	1.08346300	-7.18173300	0.72620300	11.58516800	3.67234800	-0.59930600	4.65397800	-0.48581500	8.87562500	-1.44361500	3.05426900	12.86920900
6164	61.63000000	9.76417900	-0.31100700	5.84507300	9.54426400	0.87330100	3.41926700	10.07780400	6.21881000	-1.42728000	8.58414000	-0.00385400	-1.35115900	1.05370600	-5.82278800	2.13277800	10.59870400	3.83079800	-0.43061100	5.14127500	-0.34832500	8.59623700	-0.01881600	1.15417600	12.13773100
6165	61.64000000	9.31351400	-0.18210300	5.84778000	9.50648200	1.06462700	3.24196800	8.71575000	5.72533100	-0.76915800	8.61535000	0.04298000	-1.24636700	0.92899700	-5.50245000	3.19177200	9.62909300	3.82964500	-0.12422500	4.97540400	-0.16996700	8.74330700	0.04225200	2.06348800	12.20617200
6166	61.65000000	9.01295900	-0.14434700	5.71930300	9.35577600	1.33823600	3.13971700	8.14616600	4.49720200	-0.19522000	8.77299700	-0.08744900	-1.13034100	0.59770200	-5.88528100	3.68289700	9.10024300	3.85370200	0.24711500	4.92344900	0.02213500	8.70746100	0.01555200	2.66737200	11.93323600
6167	61.66000000	8.89619400	-0.01710000	5.76486500	9.12453500	1.55784300	3.09002300	8.86813300	3.17322900	-0.11771200	8.98340400	-0.19151800	-0.94836200	0.34160100	-6.68587300	3.52277100	8.84856600	3.88381200	0.59254500	4.83764900	0.05194800	8.75318200	-0.14182600	2.33036500	11.72251000
6168	61.67000000	9.17889200	0.04776000	5.70211800	8.91132900	1.78672000	3.10888500	10.06510100	1.98148800	-0.31494800	9.23852100	-0.40729900	-0.86765000	0.11081900	-6.96482500	2.89444500	8.69311400	3.78518100	0.81143600	4.90201700	0.07781300	8.77652700	0.11630400	0.83438700	11.54487100
6169	61.68000000	9.28995900	0.00090900	5.77721600	8.72865300	1.89597900	3.05377400	10.81797600	1.08691500	-0.31630900	9.36630700	-0.69183700	-0.91860500	0.61268800	-6.15269900	2.38490200	8.74480300	3.64725900	0.84182400	4.78309300	0.02914700	8.78192900	0.62212900	-0.62324100	11.20732600
6170	61.69000000	8.87695900	0.10914000	5.89491600	8.62521700	1.88234400	3.01546700	10.80198900	0.42366000	-0.43438700	9.20736200	-0.91115600	-0.82856600	1.53915800	-5.31291800	2.15721400	8.77534000	3.54401000	0.58986300	4.67811700	-0.00143600	8.83058500	0.79929800	-0.98077600	11.08851000
6171	61.70000000	8.47485900	0.09869800	5.87006200	8.52215800	1.81097400	2.98447900	10.32685600	-0.00948900	-0.56317800	9.10257700	-0.97188900	-0.64584500	2.38600700	-4.75779600	2.50848900	8.90925700	3.30146800	0.32169500	4.67422000	-0.07010400	8.86113900	1.44587800	-1.28919600	11.03544100
6172	61.71000000	8.43012100	0.15671000	5.85073800	8.57007600	1.80186200	2.95569200	9.73224600	0.05539800	-0.38589100	9.14739500	-0.94270400	-0.58046600	2.55747200	-3.98374800	3.49892100	8.46529300	3.32762800	0.09957700	4.65331000	-0.01745900	8.87266600	1.72349900	-1.64217000	10.71859700
6173	61.72000000	8.48962700	0.19273100	5.89866300	8.67702100	1.73750600	2.94545100	9.49849200	0.64531300	-0.30012700	9.19084000	-1.01416800	-0.58291000	2.71516700	-2.39789700	3.51168900	8.24787300	2.95921900	-0.04625500	5.00033800	0.13255800	8.63336000	2.38250500	-1.97615600	11.01381100
6174	61.73000000	8.44480500	0.10979100	5.92847500	8.64295400	1.69579400	2.87034500	9.63638900	1.60863900	-0.30333500	9.31742500	-1.09205300	-0.54549700	3.74825800	-1.56838500	2.07563600	7.92669200	2.84717700	-0.26572000	4.73656100	-0.08580600	8.70504100	3.92920700	-1.81716000	11.86984200
6175	61.74000000	8.33333000	0.08987700	5.97856300	8.56916000	1.71542600	2.84862500	9.80359000	2.33936400	-0.12223800	9.28475600	-1.21516000	-0.54990300	4.85889800	-2.48798900	0.93540600	7.59820600	2.60348800	-0.31503400	4.69120800	-0.07068600	8.85215200	5.22988000	-1.32641900	13.01499900
6176	61.75000000	8.09212800	0.04431700	5.98126100	8.49393400	1.80243800	2.76527300	9.76873200	2.66775200	0.22778300	9.10784300	-1.26777100	-0.46979700	5.19169500	-4.36564100	0.84885100	7.36313600	2.58266800	-0.30185200	4.56605500	-0.01232800	8.86930200	6.05609000	-1.05581600	13.98779000
6177	61.76000000	7.85373500	0.05011700	5.97371900	8.33902900	1.89836200	2.67422600	9.60902400	2.69636700	0.22071700	8.84147600	-1.20825500	-0.32919400	4.85780200	-5.85009500	0.63161600	7.40753800	2.22318500	-0.16698200	5.00424800	0.20436900	8.68154500	6.88290000	-0.87138500	14.57651200
